<?xml version="1.0" encoding="utf-8"?>
<!-- Generator: Adobe Illustrator 19.2.1, SVG Export Plug-In . SVG Version: 6.00 Build 0)  -->
<svg version="1.1" id="Layer_1" xmlns="http://www.w3.org/2000/svg" xmlns:xlink="http://www.w3.org/1999/xlink" x="0px" y="0px"
	 viewBox="0 0 500 100" style="enable-background:new 0 0 500 100;" xml:space="preserve">
<style type="text/css">
	.st0{fill:#FFFFFF;stroke:#9F9D97;stroke-width:2;stroke-miterlimit:10;}
	.st1{fill:#D7D7D7;stroke:#B8B7B6;stroke-width:2;stroke-miterlimit:10;}
	.st2{fill:#189618;}
	.st3{fill:#C10000;}
	.st4{fill:#507299;}
</style>
<g>
	<path class="st0" d="M1.7,52l42.9,46.2c1,1.1,2.6,1.1,3.6,0c1-1.1,1-2.8,0-3.9L7.2,50l41-44.3c1-1.1,1-2.8,0-3.9
		C47.7,1.3,47.1,1,46.4,1s-1.3,0.3-1.8,0.8L1.8,48.1C0.8,49.1,0.8,50.9,1.7,52z"/>
</g>
<g>
	<path class="st1" d="M145.3,50l-43.4,43.7c-1.2,1.2-1.2,3.2,0,4.4c0.6,0.6,1.4,0.9,2.2,0.9c0.8,0,1.6-0.3,2.2-0.9l43.7-44l43.7,44
		c0.6,0.6,1.4,0.9,2.2,0.9c0.8,0,1.6-0.3,2.2-0.9c1.2-1.2,1.2-3.2,0-4.4L154.7,50l43.4-43.7c1.2-1.2,1.2-3.2,0-4.4
		c-1.2-1.2-3.2-1.2-4.4,0L150,46l-43.7-44c-1.2-1.2-3.2-1.2-4.4,0c-1.2,1.2-1.2,3.2,0,4.4L145.3,50z"/>
</g>
<g>
	<path class="st0" d="M98.3,48L55.4,1.8c-1-1.1-2.6-1.1-3.6,0c-1,1.1-1,2.8,0,3.9l41,44.3l-41,44.3c-1,1.1-1,2.8,0,3.9
		c0.5,0.5,1.2,0.8,1.8,0.8s1.3-0.3,1.8-0.8l42.9-46.2C99.2,50.9,99.2,49.1,98.3,48z"/>
</g>
<g>
	<path class="st2" d="M250,100c-27.6,0-50-22.4-50-50c0-27.6,22.4-50,50-50s50,22.4,50,50C300,77.6,277.6,100,250,100z M250,6.3
		c-24.2,0-43.7,19.6-43.7,43.7s19.6,43.7,43.7,43.7s43.7-19.6,43.7-43.7S274.2,6.3,250,6.3z M251.4,70.1c-0.2,0.5-0.4,0.9-0.8,1.3
		c-1.3,1.2-3.2,1.1-4.4-0.2L232,58.1c-1.2-1.3-1.1-3.2,0.1-4.4c1.3-1.2,3.2-1.1,4.4,0.1l11.2,10.3l20-34.6c0.9-1.5,2.8-2,4.3-1.1
		c1.5,0.9,2,2.8,1.1,4.3L251.4,70.1z"/>
</g>
<path class="st3" d="M350,100c-27.6,0-50-22.4-50-50s22.4-50,50-50s50,22.4,50,50S377.6,100,350,100z M350,6.3
	c-24.2,0-43.8,19.6-43.8,43.8s19.6,43.8,43.8,43.8s43.8-19.6,43.8-43.8S374.2,6.3,350,6.3z M343.8,68.8h12.5v12.5h-12.5V68.8z
	 M343.8,18.8h12.5v43.8h-12.5V18.8z"/>
<g>
	<path class="st4" d="M493.6,0h-87.2c-3.5,0-6.4,2.9-6.4,6.4v87.2c0,3.5,2.9,6.4,6.4,6.4h87.2c3.5,0,6.4-2.9,6.4-6.4V6.4
		C500,2.9,497.1,0,493.6,0z M483,60.9c1.8,1.9,5.8,5,5.1,8.2c-0.7,2.9-5,1.9-9.3,2c-4.8,0.2-7.7,0.3-10.6-2
		c-1.4-1.1-2.2-2.4-3.5-3.9c-1.2-1.3-2.7-3.7-4.7-3.6c-3.7,0.2-2.5,5.3-3.8,8.8c-20.4,3.2-28.6-9.4-35.9-21.7
		c-3.5-5.9-8.6-18.7-8.6-18.7l14.5,0c0,0,4.6,8.4,5.9,10.6c1,1.8,2.2,3.3,3.4,5c1,1.4,2.6,4.1,4.3,3.8c2.8-0.4,3.3-11.2,1.6-14.9
		c-0.7-1.5-2.3-2-4.1-2.5c0.6-3.7,16.2-4.4,18.7-1.6c3.7,4.1-2.5,15.6,2.5,18.9c7.1-3.7,13.1-19.2,13.1-19.2l16.9,0.1
		c0,0-2.6,8.4-5.4,12.1c-1.6,2.2-7,7-6.8,10.6C476.3,55.9,480.7,58.6,483,60.9z"/>
</g>
</svg>
