<svg id="Layer_1" xmlns="http://www.w3.org/2000/svg" viewBox="0 0 500 100"><style>.st0,.st1{fill:#fff;stroke:#9f9d97;stroke-width:2;stroke-miterlimit:10}.st1{fill:#d7d7d7;stroke:#b8b7b6}.st2{fill:#189618}.st3{fill:#c10000}.st4{fill:#507299}</style><path class="st0" d="M1.7 52l42.9 46.2c1 1.1 2.6 1.1 3.6 0s1-2.8 0-3.9L7.2 50l41-44.3c1-1.1 1-2.8 0-3.9-.5-.5-1.1-.8-1.8-.8s-1.3.3-1.8.8L1.8 48.1c-1 1-1 2.8-.1 3.9z"/><path class="st1" d="M145.3 50l-43.4 43.7c-1.2 1.2-1.2 3.2 0 4.4.6.6 1.4.9 2.2.9.8 0 1.6-.3 2.2-.9l43.7-44 43.7 44c.6.6 1.4.9 2.2.9.8 0 1.6-.3 2.2-.9 1.2-1.2 1.2-3.2 0-4.4L154.7 50l43.4-43.7c1.2-1.2 1.2-3.2 0-4.4-1.2-1.2-3.2-1.2-4.4 0L150 46 106.3 2c-1.2-1.2-3.2-1.2-4.4 0-1.2 1.2-1.2 3.2 0 4.4L145.3 50z"/><path class="st0" d="M98.3 48L55.4 1.8c-1-1.1-2.6-1.1-3.6 0s-1 2.8 0 3.9l41 44.3-41 44.3c-1 1.1-1 2.8 0 3.9.5.5 1.2.8 1.8.8s1.3-.3 1.8-.8L98.3 52c.9-1.1.9-2.9 0-4z"/><path class="st2" d="M250 100c-27.6 0-50-22.4-50-50s22.4-50 50-50 50 22.4 50 50-22.4 50-50 50zm0-93.7c-24.2 0-43.7 19.6-43.7 43.7s19.6 43.7 43.7 43.7 43.7-19.6 43.7-43.7S274.2 6.3 250 6.3zm1.4 63.8c-.2.5-.4.9-.8 1.3-1.3 1.2-3.2 1.1-4.4-.2L232 58.1c-1.2-1.3-1.1-3.2.1-4.4 1.3-1.2 3.2-1.1 4.4.1l11.2 10.3 20-34.6c.9-1.5 2.8-2 4.3-1.1 1.5.9 2 2.8 1.1 4.3l-21.7 37.4z"/><path class="st3" d="M350 100c-27.6 0-50-22.4-50-50s22.4-50 50-50 50 22.4 50 50-22.4 50-50 50zm0-93.7c-24.2 0-43.8 19.6-43.8 43.8s19.6 43.8 43.8 43.8 43.8-19.6 43.8-43.8S374.2 6.3 350 6.3zm-6.2 62.5h12.5v12.5h-12.5V68.8zm0-50h12.5v43.8h-12.5V18.8z"/><path class="st4" d="M493.6 0h-87.2c-3.5 0-6.4 2.9-6.4 6.4v87.2c0 3.5 2.9 6.4 6.4 6.4h87.2c3.5 0 6.4-2.9 6.4-6.4V6.4c0-3.5-2.9-6.4-6.4-6.4zM483 60.9c1.8 1.9 5.8 5 5.1 8.2-.7 2.9-5 1.9-9.3 2-4.8.2-7.7.3-10.6-2-1.4-1.1-2.2-2.4-3.5-3.9-1.2-1.3-2.7-3.7-4.7-3.6-3.7.2-2.5 5.3-3.8 8.8-20.4 3.2-28.6-9.4-35.9-21.7-3.5-5.9-8.6-18.7-8.6-18.7h14.5s4.6 8.4 5.9 10.6c1 1.8 2.2 3.3 3.4 5 1 1.4 2.6 4.1 4.3 3.8 2.8-.4 3.3-11.2 1.6-14.9-.7-1.5-2.3-2-4.1-2.5.6-3.7 16.2-4.4 18.7-1.6 3.7 4.1-2.5 15.6 2.5 18.9 7.1-3.7 13.1-19.2 13.1-19.2l16.9.1s-2.6 8.4-5.4 12.1c-1.6 2.2-7 7-6.8 10.6 0 3 4.4 5.7 6.7 8z"/></svg>